<svg width="25" height="25" xmlns="http://www.w3.org/2000/svg">

 <g>
  <title>background</title>
  <rect fill="none" id="canvas_background" height="27" width="27" y="-1" x="-1"/>
 </g>
 <g>
  <title>Layer 1</title>
  <path id="svg_2" fill="none" d="m15.4158,37.95337l-0.23523,-0.00604l0,0.00806c0.07837,-0.00001 0.1568,-0.00001 0.23523,-0.00202z"/>
  <path id="svg_11" fill="#303030" d="m16.016159,6.332036c1.64111,-0.01904 2.12256,0 2.13281,-0.00049c0.08545,0.00391 0.18408,-0.02979 0.25342,-0.09424c0.06836,-0.06396 0.10791,-0.15234 0.11084,-0.24609l0.09863,-3.69775c0,-0.35303 0,-0.35303 -2.41992,-0.41846l-0.33545,-0.00977c-0.27441,-0.00879 -0.54932,-0.01709 -0.82422,-0.01123c-0.58398,0.01367 -1.25879,0.14893 -1.90039,0.38086c-0.39941,0.14404 -0.76855,0.32959 -1.09766,0.55127c-0.66455,0.4502 -1.20215,1.0918 -1.55371,1.85596c-0.37988,0.82568 -0.58887,1.83008 -0.58887,2.82861l0,2.56934l-3.05615,0c-0.18994,0 -0.34521,0.15186 -0.3501,0.3418l-0.09717,4.03857c-0.00195,0.09375 0.03369,0.18457 0.09912,0.25195s0.15527,0.10596 0.24902,0.10645l3.12061,0.01758l0.10254,8.00586c0.00244,0.19141 0.15869,0.3457 0.3501,0.3457l3.95117,0c0.19189,0 0.34814,-0.15479 0.3501,-0.34668l0.0835,-8.02246l2.91406,0c0.1748,0 0.32227,-0.12891 0.34668,-0.30176l0.55469,-3.97021c0.01367,-0.09912 -0.01562,-0.19971 -0.08057,-0.27588s-0.15967,-0.12061 -0.25977,-0.12256l-3.48877,-0.06201l0.01758,-2.76025c0.0005,-0.0962 0.04249,-0.93897 1.31788,-0.95411z"/>
 </g>
</svg>