<svg width="25" height="25" xmlns="http://www.w3.org/2000/svg">

 <g>
  <title>background</title>
  <rect fill="none" id="canvas_background" height="27" width="27" y="-1" x="-1"/>
 </g>
 <g>
  <title>Layer 1</title>
  <path id="svg_6" fill="#303030" d="m18.06897,0.412715l-11.1388,0c-3.59397,0 -6.51767,2.92413 -6.51767,6.5181l0,11.1388c0,3.5944 2.9237,6.51767 6.51767,6.51767l11.1388,0c3.5944,0 6.51853,-2.92327 6.51853,-6.51767l0,-11.1388c0,-3.59397 -2.92413,-6.5181 -6.51853,-6.5181zm-5.56897,17.99289c-3.25628,0 -5.90582,-2.64911 -5.90582,-5.90539c0,-3.2567 2.64954,-5.90624 5.90582,-5.90624s5.90582,2.64954 5.90582,5.90624c0,3.25628 -2.64954,5.90539 -5.90582,5.90539zm-10.08691,-3.09767l0,-1.18278c0,-0.16885 0.13687,-0.30572 0.30572,-0.30572s0.30572,0.13687 0.30572,0.30572l0,1.18278c0,0.16885 -0.13687,0.30572 -0.30572,0.30572s-0.30572,-0.13687 -0.30572,-0.30572zm0.61143,-6.74791l0,3.94019c0,0.16885 -0.13687,0.30572 -0.30572,0.30572s-0.30572,-0.13687 -0.30572,-0.30572l0,-3.94019c0,-0.16885 0.13687,-0.30572 0.30572,-0.30572s0.30572,0.13687 0.30572,0.30572zm16.87369,-2.41178c-0.44445,0 -0.8048,-0.36029 -0.8048,-0.8048s0.36035,-0.80485 0.8048,-0.80485c0.4445,0 0.80485,0.36035 0.80485,0.80485s-0.36035,0.8048 -0.80485,0.8048z"/>
 </g>
</svg>