<svg width="25" height="25" xmlns="http://www.w3.org/2000/svg">

 <g>
  <title>background</title>
  <rect fill="none" id="canvas_background" height="27" width="27" y="-1" x="-1"/>
 </g>
 <g>
  <title>Layer 1</title>
  <path id="svg_2" fill="#303030" d="m20.42031,8.402131c-0.20947,-2.03613 -1.25049,-3.67529 -3.09521,-4.87207c-1.46582,-0.95166 -3.14844,-1.3457 -5.14307,-1.20166c-1.5166,0.1084 -2.80615,0.49414 -3.94238,1.17871c-2.0835,1.25586 -3.30908,3.0625 -3.64307,5.37012c-0.19238,1.32373 0.00781,2.56494 0.59424,3.69092c0.40283,0.77197 0.99365,1.34033 1.75488,1.68799c0.13916,0.06396 0.5625,0.2583 0.90381,-0.04248c0.13818,-0.12207 0.21143,-0.27734 0.26465,-0.41406c0.34912,-0.89111 0.27051,-1.62549 -0.23975,-2.24512c-0.44531,-0.54004 -0.44922,-1.29834 -0.40234,-1.89795c0.13428,-1.73193 0.91406,-3.05664 2.31592,-3.93799c1.02783,-0.64648 2.22607,-0.88721 3.55713,-0.72217c0.56885,0.07178 1.0752,0.20361 1.50537,0.39209c1.26758,0.55713 1.97461,1.55908 2.10107,2.97803c0.13428,1.50293 -0.11426,2.92773 -0.73926,4.23486c-0.28711,0.60205 -0.65381,1.07666 -1.08936,1.41016c-0.5874,0.45117 -1.17627,0.59082 -1.80127,0.42139c-0.71338,-0.19043 -1.14258,-0.94287 -0.95654,-1.67773c0.11084,-0.43799 0.23926,-0.87158 0.36768,-1.30518c0.14014,-0.47363 0.27979,-0.94775 0.39844,-1.42627c0.1499,-0.60498 0.21045,-1.12109 0.18604,-1.5791c-0.03613,-0.67383 -0.36182,-1.23926 -0.89453,-1.55176c-0.55029,-0.32373 -1.23242,-0.3291 -1.86963,-0.01807c-0.77637,0.38135 -1.27148,1.05908 -1.51221,2.07227c-0.20703,0.8667 -0.14648,1.74707 0.18359,2.68945c0.02441,0.0708 0.02979,0.14111 0.01514,0.2041c-0.16602,0.71484 -0.33545,1.4292 -0.50488,2.14355c-0.31396,1.32422 -0.62793,2.64844 -0.9209,3.97754c-0.09863,0.44775 -0.12549,0.90479 -0.15137,1.34668c-0.01025,0.17529 -0.02051,0.3501 -0.03516,0.52344c-0.01025,0.12109 -0.0083,0.24365 -0.00537,0.36768l0.00195,0.13916l-0.04541,1.66748c-0.00146,0.30127 0.18213,0.55859 0.46729,0.65576c0.07568,0.02588 0.15234,0.03857 0.22754,0.03857c0.20947,0 0.4082,-0.09619 0.54297,-0.27246c0.00781,-0.01025 0.01514,-0.021 0.02197,-0.03223l0.78906,-1.31836c0.91992,-1.2749 1.27441,-2.72607 1.61768,-4.12988c0.06299,-0.25732 0.12549,-0.51416 0.19189,-0.77002c0.81396,0.76807 1.8833,1.0874 3.18994,0.95215c1.98779,-0.20703 3.54248,-1.25391 4.62012,-3.11084c0.98682,-1.7002 1.38135,-3.58985 1.17334,-5.6167zm-1.98193,2.53906c0.40234,-1.60791 -0.0376,-3.2373 -0.04199,-3.25342c-0.05127,-0.18652 0.05811,-0.37939 0.24414,-0.43066c0.18848,-0.05176 0.37891,0.05811 0.43066,0.24414c0.02051,0.07373 0.49316,1.8252 0.0459,3.60986c-0.03955,0.15918 -0.18213,0.26514 -0.33887,0.26514c-0.02832,0 -0.05713,-0.00342 -0.08545,-0.01074c-0.1875,-0.04688 -0.30127,-0.23682 -0.25439,-0.42432z"/>
 </g>
</svg>