<svg width="25.000000000000004" height="25.000000000000004" xmlns="http://www.w3.org/2000/svg">

 <g>
  <title>background</title>
  <rect fill="none" id="canvas_background" height="27" width="27" y="-1" x="-1"/>
 </g>
 <g>
  <title>Layer 1</title>
  <path id="svg_2" fill="#303030" d="m23.795071,5.442424c-0.10107,-0.11621 -0.2666,-0.15039 -0.40625,-0.08887c-0.40918,0.18262 -0.79688,0.30664 -1.1333,0.39062c0.78271,-0.84863 1.05859,-1.70312 1.07324,-1.75098c0.04248,-0.13574 -0.00146,-0.28418 -0.11133,-0.37402c-0.10986,-0.0918 -0.26318,-0.10449 -0.38867,-0.03906c-1.3501,0.72754 -2.24463,0.93359 -2.59717,0.99023c-1.47021,-1.81836 -3.85547,-1.7168 -5.60791,-0.78223c-1.69824,0.90527 -3.18701,2.78711 -2.71777,4.91211c-5.40723,-0.37988 -8.58838,-4.50098 -8.62061,-4.54395c-0.06934,-0.0918 -0.16113,-0.14258 -0.2959,-0.13867c-0.11523,0.00586 -0.22021,0.06738 -0.28125,0.16602c-1.5376,2.4873 -0.29688,4.59961 0.6333,5.67969c-0.48438,-0.14258 -0.88477,-0.33789 -0.89111,-0.34082c-0.1084,-0.05469 -0.23828,-0.04883 -0.34131,0.01758c-0.10303,0.06445 -0.16504,0.17871 -0.16357,0.2998c0.02783,2.46094 1.41846,3.71289 2.53418,4.32227c-0.30908,-0.00879 -0.50879,-0.04297 -0.51318,-0.04395c-0.12354,-0.02539 -0.25391,0.02539 -0.3335,0.12598c-0.08008,0.09863 -0.09961,0.23438 -0.05127,0.35156c0.93213,2.26562 2.56787,3.00684 3.59863,3.24902c-2.56396,1.63477 -5.64014,1.33594 -5.67529,1.33301c-0.16504,-0.02734 -0.31494,0.08008 -0.36768,0.23438c-0.05273,0.15527 0.0083,0.3252 0.14697,0.41113c1.71826,1.06055 4.33594,1.87402 6.51367,2.02441c0.21094,0.01465 0.43408,0.02148 0.66797,0.02148c2.33887,0 5.71289,-0.76758 8.44043,-3.00195c2.91016,-2.38281 4.05908,-5.73047 4.48486,-7.51465c0.26074,-1.0918 0.32471,-2.68848 0.33936,-3.2207c1.26514,-0.93848 2.06396,-2.21875 2.09863,-2.27539c0.08058,-0.13085 0.06691,-0.29882 -0.03417,-0.41405zm-7.69189,11.95605c-0.0918,0 -0.18359,-0.03516 -0.25195,-0.10645c-0.13428,-0.13965 -0.12988,-0.36133 0.00928,-0.49512c0.19922,-0.19238 0.38428,-0.39062 0.55518,-0.5918c0.12354,-0.14746 0.34473,-0.16504 0.49316,-0.04004c0.14746,0.125 0.16553,0.3457 0.04004,0.49316c-0.18555,0.21875 -0.38623,0.43457 -0.60303,0.64258c-0.06787,0.06545 -0.15528,0.09767 -0.24268,0.09767zm1.17969,-2.20312c0.61572,-0.8623 1.11523,-1.87793 1.44385,-2.93652c0.05811,-0.18457 0.25342,-0.28711 0.43848,-0.23047c0.18457,0.05664 0.2876,0.25293 0.23047,0.4375c-0.35107,1.12891 -0.88477,2.21387 -1.54346,3.13574c-0.06836,0.0957 -0.17578,0.14648 -0.28516,0.14648c-0.07031,0 -0.14111,-0.02051 -0.20312,-0.06445c-0.15723,-0.1123 -0.19337,-0.33105 -0.08106,-0.48828z"/>
 </g>
</svg>